<?xml version="1.0" encoding="UTF-8" standalone="no"?>
<!-- Created with Inkscape (http://www.inkscape.org/) -->

<svg
   width="256"
   height="256"
   viewBox="0 0 67.73333 67.73333"
   version="1.1"
   id="svg5"
   sodipodi:docname="o.svg"
   inkscape:version="1.1 (c68e22c387, 2021-05-23)"
   inkscape:export-filename="C:\Users\jiang\Home\Python\ultimate-tictactoe-2\img\o.png"
   inkscape:export-xdpi="96"
   inkscape:export-ydpi="96"
   xmlns:inkscape="http://www.inkscape.org/namespaces/inkscape"
   xmlns:sodipodi="http://sodipodi.sourceforge.net/DTD/sodipodi-0.dtd"
   xmlns="http://www.w3.org/2000/svg"
   xmlns:svg="http://www.w3.org/2000/svg">
  <sodipodi:namedview
     id="namedview7"
     pagecolor="#ffffff"
     bordercolor="#999999"
     borderopacity="1"
     inkscape:pageshadow="0"
     inkscape:pageopacity="0"
     inkscape:pagecheckerboard="0"
     inkscape:document-units="mm"
     showgrid="false"
     inkscape:zoom="1.0809568"
     inkscape:cx="48.568085"
     inkscape:cy="121.65149"
     inkscape:window-width="1920"
     inkscape:window-height="1017"
     inkscape:window-x="-8"
     inkscape:window-y="-8"
     inkscape:window-maximized="1"
     inkscape:current-layer="layer1"
     units="px" />
  <defs
     id="defs2" />
  <g
     inkscape:label="Layer 1"
     inkscape:groupmode="layer"
     id="layer1"
     transform="translate(-59.71154,-77.884613)">
    <path
       id="path846"
       style="fill:#1a1a1a;fill-opacity:1;stroke:none;stroke-width:2.11667;stroke-linecap:round;stroke-linejoin:round;stroke-opacity:1;paint-order:stroke fill markers"
       d="m 93.578209,86.351278 a 25.4,25.399996 0 0 0 -25.4,25.399992 25.4,25.399996 0 0 0 25.4,25.40001 A 25.4,25.399996 0 0 0 118.9782,111.75127 25.4,25.399996 0 0 0 93.578209,86.351278 Z m 0,4.233334 A 21.166666,21.166663 0 0 1 114.74487,111.75127 21.166666,21.166663 0 0 1 93.578209,132.91794 21.166666,21.166663 0 0 1 72.411542,111.75127 21.166666,21.166663 0 0 1 93.578209,90.584612 Z" />
  </g>
</svg>
