<?xml version="1.0" encoding="UTF-8" standalone="no"?>
<!-- Created with Inkscape (http://www.inkscape.org/) -->

<svg
   width="33.866669mm"
   height="33.866669mm"
   viewBox="0 0 33.866669 33.866669"
   version="1.1"
   id="svg5"
   sodipodi:docname="o.svg"
   inkscape:version="1.1 (c68e22c387, 2021-05-23)"
   inkscape:export-filename="C:\Users\jiang\Home\Python\ultimate-tictactoe-2\img\o.png"
   inkscape:export-xdpi="96"
   inkscape:export-ydpi="96"
   xmlns:inkscape="http://www.inkscape.org/namespaces/inkscape"
   xmlns:sodipodi="http://sodipodi.sourceforge.net/DTD/sodipodi-0.dtd"
   xmlns="http://www.w3.org/2000/svg"
   xmlns:svg="http://www.w3.org/2000/svg">
  <sodipodi:namedview
     id="namedview7"
     pagecolor="#ffffff"
     bordercolor="#999999"
     borderopacity="1"
     inkscape:pageshadow="0"
     inkscape:pageopacity="0"
     inkscape:pagecheckerboard="0"
     inkscape:document-units="mm"
     showgrid="false"
     inkscape:zoom="3.0574074"
     inkscape:cx="30.254391"
     inkscape:cy="82.586312"
     inkscape:window-width="1920"
     inkscape:window-height="1017"
     inkscape:window-x="-8"
     inkscape:window-y="-8"
     inkscape:window-maximized="1"
     inkscape:current-layer="layer1" />
  <defs
     id="defs2" />
  <g
     inkscape:label="Layer 1"
     inkscape:groupmode="layer"
     id="layer1"
     transform="translate(-59.71154,-77.884613)">
    <path
       id="path846"
       style="fill:#1a1a1a;fill-opacity:1;stroke:none;stroke-width:8.00001;stroke-linecap:round;stroke-linejoin:round;stroke-opacity:1;paint-order:stroke fill markers"
       d="M 64 16 A 47.999999 47.999999 0 0 0 16 64 A 47.999999 47.999999 0 0 0 64 112 A 47.999999 47.999999 0 0 0 112 64 A 47.999999 47.999999 0 0 0 64 16 z M 64 24 A 39.999999 39.999999 0 0 1 104 64 A 39.999999 39.999999 0 0 1 64 104 A 39.999999 39.999999 0 0 1 24 64 A 39.999999 39.999999 0 0 1 64 24 z "
       transform="matrix(0.26458333,0,0,0.26458333,59.71154,77.884613)" />
  </g>
</svg>
